<?xml version="1.0" encoding="UTF-8"?>
<svg id="Layer_1" data-name="Layer 1" xmlns="http://www.w3.org/2000/svg" viewBox="0 0 400 400">
  <defs>
    <style>
      .cls-1 {
        fill: #171717;
        stroke-width: 0px;
      }
    </style>
  </defs>
  <path class="cls-1" d="m61.45,168.69h-7.74c0,7.78-2.99,12.52-11.16,16.28v-16.28h-7.79v19.15c-1.92.58-4,1.15-6.28,1.72h0c-1.71.41-3.35.85-4.94,1.3v-22.17h-7.79v24.8c-12,4.81-18.9,11.96-18.9,24.7h7.74c0-7.78,2.99-12.52,11.16-16.28v16.28h7.79v-19.15c1.92-.58,4.01-1.15,6.28-1.72h0c1.7-.41,3.35-.85,4.93-1.3v22.17h7.79v-24.8c12-4.81,18.9-11.96,18.9-24.7Z"/>
  <path class="cls-1" d="m90.48,168.68v49.51h9.62v-20.94h24.74v20.94h9.55v-49.5h-9.55v18.43h-24.74v-18.44h-9.62"/>
  <path class="cls-1" d="m184.05,168.69v25.83c0,7.51-.77,15.47-12.98,15.47s-13.08-7.79-13.08-15.47v-25.83h-9.57v26.45c0,11.81,3.28,24.42,22.65,24.42s22.63-12.8,22.63-24.42v-26.45h-9.66"/>
  <path class="cls-1" d="m264.04,168.68v49.48h33.15v-10.01h-23.53v-39.47h-9.61Z"/>
  <path class="cls-1" d="m326.49,209.76c-9.35,0-16.67-7.24-16.67-16.48s7.32-16.48,16.67-16.48,16.67,7.24,16.67,16.48-7.33,16.48-16.67,16.48Zm0-42.49c-14.76,0-26.32,11.43-26.32,26.01s11.57,26,26.32,26,26.32-11.42,26.32-26-11.56-26.01-26.32-26.01Z"/>
  <path class="cls-1" d="m356.73,168.68v10.07h15.44v39.42h9.63v-39.42h15.06v-10.07h-40.13Z"/>
  <path class="cls-1" d="m232.77,209.15h-16.7v-12.43s16.75,0,16.75,0c4.96,0,7.12,1.95,7.12,6.39,0,3.33-1.35,6.04-7.17,6.04h0Zm-1.49-31.39c5.36,0,7.01,1.96,7.01,5.22s-1.43,5.58-6.81,5.58h-15.41s0-10.8,0-10.8h15.21Zm12.72,14.47c2.97-2.34,4.67-5.74,4.67-9.87s-1.65-13.67-16.91-13.67h-25.24v49.49h26.84c10.81,0,17.01-5.5,17.01-15.06,0-4.66-2.21-8.39-6.37-10.89Z"/>
</svg>